<mxfile host="app.diagrams.net" modified="2020-12-12T18:24:44.965Z" agent="5.0 (Windows)" etag="n5kzoeZkKaHeRKHJCYGV" version="14.0.1" type="github">
  <diagram id="6G7ujvmzATYOezFDr81h" name="Page-1">
    <mxGraphModel dx="782" dy="398" grid="1" gridSize="10" guides="1" tooltips="1" connect="1" arrows="1" fold="1" page="1" pageScale="1" pageWidth="850" pageHeight="1100" math="0" shadow="0">
      <root>
        <mxCell id="0" />
        <mxCell id="1" parent="0" />
        <mxCell id="63PwRGhciHyG-fb_nBJa-1" value="" style="ellipse;html=1;shape=startState;fillColor=#000000;strokeColor=#ff0000;" vertex="1" parent="1">
          <mxGeometry x="155" y="80" width="30" height="30" as="geometry" />
        </mxCell>
        <mxCell id="63PwRGhciHyG-fb_nBJa-2" value="" style="edgeStyle=orthogonalEdgeStyle;html=1;verticalAlign=bottom;endArrow=open;endSize=8;strokeColor=#ff0000;" edge="1" parent="1">
          <mxGeometry relative="1" as="geometry">
            <mxPoint x="170" y="180" as="targetPoint" />
            <mxPoint x="170" y="120" as="sourcePoint" />
          </mxGeometry>
        </mxCell>
        <mxCell id="63PwRGhciHyG-fb_nBJa-3" value="" style="edgeStyle=orthogonalEdgeStyle;rounded=0;orthogonalLoop=1;jettySize=auto;html=1;" edge="1" parent="1" source="63PwRGhciHyG-fb_nBJa-4">
          <mxGeometry relative="1" as="geometry">
            <mxPoint x="170" y="290" as="targetPoint" />
          </mxGeometry>
        </mxCell>
        <mxCell id="63PwRGhciHyG-fb_nBJa-4" value="&lt;div&gt;انتخاب گزینه&lt;/div&gt;&lt;div&gt; Complete profile info&lt;/div&gt;" style="rounded=1;whiteSpace=wrap;html=1;" vertex="1" parent="1">
          <mxGeometry x="110" y="190" width="120" height="60" as="geometry" />
        </mxCell>
        <mxCell id="63PwRGhciHyG-fb_nBJa-5" style="edgeStyle=orthogonalEdgeStyle;rounded=0;orthogonalLoop=1;jettySize=auto;html=1;entryX=0.5;entryY=0;entryDx=0;entryDy=0;" edge="1" parent="1" source="63PwRGhciHyG-fb_nBJa-6" target="63PwRGhciHyG-fb_nBJa-7">
          <mxGeometry relative="1" as="geometry">
            <mxPoint x="170" y="450" as="sourcePoint" />
          </mxGeometry>
        </mxCell>
        <mxCell id="63PwRGhciHyG-fb_nBJa-7" value="" style="ellipse;html=1;shape=endState;fillColor=#000000;strokeColor=#ff0000;" vertex="1" parent="1">
          <mxGeometry x="155" y="800" width="30" height="30" as="geometry" />
        </mxCell>
        <mxCell id="63PwRGhciHyG-fb_nBJa-8" value="&lt;b&gt;Complete profile info activity diagram&lt;/b&gt;" style="text;html=1;strokeColor=none;fillColor=none;align=center;verticalAlign=middle;whiteSpace=wrap;rounded=0;" vertex="1" parent="1">
          <mxGeometry x="480" y="120" width="130" height="10" as="geometry" />
        </mxCell>
        <mxCell id="63PwRGhciHyG-fb_nBJa-9" value="وارد کردن جنسیت" style="rounded=1;whiteSpace=wrap;html=1;" vertex="1" parent="1">
          <mxGeometry x="110" y="290" width="120" height="60" as="geometry" />
        </mxCell>
        <mxCell id="63PwRGhciHyG-fb_nBJa-10" value="وارد کردن قد" style="rounded=1;whiteSpace=wrap;html=1;" vertex="1" parent="1">
          <mxGeometry x="110" y="490" width="120" height="60" as="geometry" />
        </mxCell>
        <mxCell id="63PwRGhciHyG-fb_nBJa-6" value="ثبت اطلاعات در پایگاه داده" style="rounded=1;whiteSpace=wrap;html=1;" vertex="1" parent="1">
          <mxGeometry x="110" y="690" width="120" height="60" as="geometry" />
        </mxCell>
        <mxCell id="63PwRGhciHyG-fb_nBJa-11" style="edgeStyle=orthogonalEdgeStyle;rounded=0;orthogonalLoop=1;jettySize=auto;html=1;entryX=0.5;entryY=0;entryDx=0;entryDy=0;" edge="1" parent="1" target="63PwRGhciHyG-fb_nBJa-6">
          <mxGeometry relative="1" as="geometry">
            <mxPoint x="170" y="650" as="sourcePoint" />
            <mxPoint x="170" y="660" as="targetPoint" />
          </mxGeometry>
        </mxCell>
        <mxCell id="63PwRGhciHyG-fb_nBJa-12" value="وارد کردن سن" style="rounded=1;whiteSpace=wrap;html=1;" vertex="1" parent="1">
          <mxGeometry x="110" y="390" width="120" height="60" as="geometry" />
        </mxCell>
        <mxCell id="63PwRGhciHyG-fb_nBJa-13" value="وارد کردن وزن" style="rounded=1;whiteSpace=wrap;html=1;" vertex="1" parent="1">
          <mxGeometry x="110" y="590" width="120" height="60" as="geometry" />
        </mxCell>
        <mxCell id="63PwRGhciHyG-fb_nBJa-15" value="" style="endArrow=classic;html=1;" edge="1" parent="1">
          <mxGeometry width="50" height="50" relative="1" as="geometry">
            <mxPoint x="169.5" y="350" as="sourcePoint" />
            <mxPoint x="170" y="390" as="targetPoint" />
          </mxGeometry>
        </mxCell>
        <mxCell id="63PwRGhciHyG-fb_nBJa-17" value="" style="endArrow=classic;html=1;" edge="1" parent="1">
          <mxGeometry width="50" height="50" relative="1" as="geometry">
            <mxPoint x="169.5" y="450" as="sourcePoint" />
            <mxPoint x="170" y="490" as="targetPoint" />
          </mxGeometry>
        </mxCell>
        <mxCell id="63PwRGhciHyG-fb_nBJa-18" value="" style="endArrow=classic;html=1;" edge="1" parent="1">
          <mxGeometry width="50" height="50" relative="1" as="geometry">
            <mxPoint x="169.5" y="550" as="sourcePoint" />
            <mxPoint x="170" y="590" as="targetPoint" />
          </mxGeometry>
        </mxCell>
      </root>
    </mxGraphModel>
  </diagram>
</mxfile>
